<svg width="32" height="32" viewBox="0 0 32 32" fill="none" xmlns="http://www.w3.org/2000/svg">
<path d="M11.425 19.8225C11.6125 24.9531 16.3056 28.9475 16.3056 28.9475L20 27.4831C21.7231 26.7956 22.3662 25.6981 23.1444 24.015L23.1481 24.0075L17.2425 25.7075L20.8506 23.98C23.4462 22.7375 24.53 21.035 25.6481 18.3831L17.2437 21.6331L25.1312 16.8687C26.9231 15.7862 27.4531 14.5762 28.3344 12.6775L18.2619 16.9737L23.1994 13.7544C28.525 10.4062 29.0031 8.45374 30.82 4.53562L19.5075 11.6519C16.2887 13.6756 11.2856 16.0225 11.425 19.8225ZM1.18 13.5312C1.18 13.9606 2.27438 14.8344 2.45188 14.82C2.68313 14.8006 5.34375 13.0794 6.3225 12.59C7.26 12.1219 10.0344 12.6694 10.3344 9.91437C11.0219 11.6644 9.66125 15.5525 8.59438 17.4256C6.38063 21.3112 10.2013 26.5875 14.9569 29.0506C14.2938 28.3801 13.6815 27.6613 13.125 26.9C12.4159 25.9392 11.8183 24.9008 11.3438 23.805C10.7812 22.48 10.4687 21.1525 10.4231 19.8594C10.3925 18.8914 10.6253 17.9334 11.0969 17.0875C11.5025 16.3375 12.0806 15.625 12.8644 14.9044C14.2294 13.6487 15.9894 12.5975 17.5469 11.6706L17.6194 11.6275C17.9838 10.94 18.1588 10.2987 17.92 9.76749C16.2506 6.05437 11.6119 3.92249 7.53375 4.33874C6.20875 2.74624 4.91562 2.95874 4.91562 2.95874L5.65937 4.54187C5.65937 4.54187 4.40938 3.84249 4.215 4.08624L5.245 6.00499L4.375 7.16312C4.375 7.16312 1.18 13.1362 1.18 13.5312ZM5.7925 7.28624C5.7925 7.16918 5.82721 7.05475 5.89225 6.95741C5.95728 6.86008 6.04972 6.78422 6.15788 6.73942C6.26603 6.69462 6.38503 6.6829 6.49984 6.70574C6.61466 6.72858 6.72012 6.78495 6.80289 6.86772C6.88567 6.9505 6.94204 7.05596 6.96488 7.17077C6.98772 7.28558 6.97599 7.40459 6.9312 7.51274C6.8864 7.62089 6.81054 7.71333 6.7132 7.77837C6.61587 7.8434 6.50144 7.87812 6.38437 7.87812C6.30654 7.8782 6.22946 7.86293 6.15754 7.83318C6.08561 7.80344 6.02027 7.7598 5.96523 7.70476C5.9102 7.64973 5.86656 7.58438 5.83681 7.51245C5.80706 7.44053 5.79179 7.36345 5.79188 7.28562L5.7925 7.28624Z" fill="black"/>
</svg>
